<svg xmlns="http://www.w3.org/2000/svg" id="Layer_1" width="50" height="50" data-name="Layer 1" viewBox="0 0 331.01 327.01">
  <defs>
    <style>
      .cls-1, .cls-2 {
        stroke: #191615;
      }

      .cls-1, .cls-2, .cls-3 {
        stroke-miterlimit: 10;
        stroke-width: 5px;
      }

      .cls-1, .cls-3, .cls-4 {
        fill: #fff;
      }

      .cls-2 {
        fill: #191615;
      }

      .cls-3 {
        stroke: #1a1716;
      }

      .cls-4 {
        stroke-width: 0px;
      }
    </style>
  </defs>
  <path class="cls-1" d="M270.64,302.5H34.36c-11,0-20.69-5.57-26.42-14.05-3.43-5.08-5.44-11.21-5.44-17.81V34.36C2.5,16.76,16.76,2.5,34.36,2.5h236.29c17.59,0,31.86,14.26,31.86,31.86v236.29c0,17.59-14.26,31.86-31.86,31.86Z"/>
  <polyline class="cls-3" points="12.45 293.76 38.68 315.98 37.42 293.76"/>
  <polyline class="cls-3" points="292.17 10.87 315.93 31 278 35"/>
  <path class="cls-2" d="M296.64,324.5H60.36c-11,0-20.69-5.57-26.42-14.05-3.43-5.08-5.44-11.21-5.44-17.81V56.36c0-17.59,14.26-31.86,31.86-31.86h236.29c17.59,0,31.86,14.26,31.86,31.86v236.29c0,17.59-14.26,31.86-31.86,31.86Z"/>
  <path id="Icon_awesome-facebook-f" data-name="Icon awesome-facebook-f" class="cls-4" d="M265.21,215.74l6.81-44.37h-42.58v-28.79c0-12.14,5.95-23.97,25.02-23.97h19.36v-37.78s-17.57-3-34.36-3c-35.06,0-57.98,21.25-57.98,59.73v33.82h-38.98v44.37h38.98v107.27h47.97v-107.27h35.77Z"/>
</svg>