<svg xmlns="http://www.w3.org/2000/svg" id="Layer_1" data-name="Layer 1" width="50" height="50" viewBox="0 0 331.01 327.01">
  <defs>
    <style>
      .cls-1, .cls-2 {
        stroke: #191615;
      }

      .cls-1, .cls-2, .cls-3 {
        stroke-miterlimit: 10;
        stroke-width: 5px;
      }

      .cls-1, .cls-3, .cls-4 {
        fill: #fff;
      }

      .cls-2 {
        fill: #191615;
      }

      .cls-3 {
        stroke: #1a1716;
      }

      .cls-4 {
        stroke-width: 0px;
      }
    </style>
  </defs>
  <path class="cls-1" d="M270.64,302.5H34.36c-11,0-20.69-5.57-26.42-14.05-3.43-5.08-5.44-11.21-5.44-17.81V34.36C2.5,16.76,16.76,2.5,34.36,2.5h236.29c17.59,0,31.86,14.26,31.86,31.86v236.29c0,17.59-14.26,31.86-31.86,31.86Z"/>
  <polyline class="cls-3" points="12.45 293.76 38.68 315.98 37.42 293.76"/>
  <polyline class="cls-3" points="292.17 10.87 315.93 31 278 35"/>
  <path class="cls-2" d="M296.64,324.5H60.36c-11,0-20.69-5.57-26.42-14.05-3.43-5.08-5.44-11.21-5.44-17.81V56.36c0-17.59,14.26-31.86,31.86-31.86h236.29c17.59,0,31.86,14.26,31.86,31.86v236.29c0,17.59-14.26,31.86-31.86,31.86Z"/>
  <path id="Icon_simple-instagram" data-name="Icon simple-instagram" class="cls-4" d="M178.97,74.56c-27.17,0-30.56.12-41.22.6-10.65.5-17.9,2.18-24.28,4.65-6.67,2.51-12.72,6.44-17.72,11.53-5.09,4.99-9.03,11.04-11.53,17.72-2.47,6.38-4.16,13.62-4.65,24.28-.5,10.67-.6,14.06-.6,41.22s.12,30.56.6,41.23c.5,10.64,2.18,17.9,4.65,24.27,2.51,6.67,6.45,12.72,11.53,17.72,4.99,5.09,11.04,9.03,17.72,11.53,6.38,2.47,13.63,4.16,24.28,4.65,10.67.5,14.06.6,41.22.6s30.56-.12,41.23-.6c10.64-.5,17.9-2.18,24.27-4.65,13.44-5.19,24.06-15.81,29.25-29.25,2.47-6.38,4.16-13.63,4.65-24.27.5-10.67.6-14.06.6-41.22s-.12-30.56-.6-41.22c-.5-10.64-2.18-17.91-4.65-24.28-2.51-6.67-6.45-12.72-11.53-17.72-4.99-5.09-11.04-9.03-17.72-11.53-6.38-2.47-13.63-4.16-24.27-4.65-10.67-.5-14.06-.6-41.23-.6ZM178.97,92.56c26.69,0,29.88.13,40.42.59,9.75.46,15.04,2.08,18.56,3.46,8.74,3.34,15.64,10.24,18.98,18.98,1.37,3.52,3,8.81,3.44,18.56.48,10.55.58,13.72.58,40.42s-.12,29.88-.62,40.42c-.51,9.75-2.13,15.04-3.51,18.56-1.63,4.34-4.18,8.27-7.49,11.52-3.23,3.31-7.16,5.86-11.5,7.47-3.5,1.37-8.88,3-18.62,3.44-10.62.48-13.74.58-40.49.58s-29.88-.12-40.49-.62c-9.76-.51-15.13-2.13-18.63-3.51-4.34-1.61-8.27-4.17-11.49-7.49-3.35-3.21-5.91-7.14-7.5-11.5-1.38-3.5-2.99-8.88-3.5-18.62-.38-10.5-.51-13.74-.51-40.37s.13-29.88.51-40.51c.51-9.75,2.12-15.12,3.5-18.62,1.56-4.37,4.13-8.31,7.5-11.51,3.19-3.36,7.13-5.92,11.49-7.48,3.5-1.38,8.76-3.01,18.51-3.51,10.62-.38,13.75-.5,40.49-.5l.38.25ZM178.97,123.21c-28.36,0-51.35,22.99-51.35,51.35s22.99,51.35,51.35,51.35,51.35-22.99,51.35-51.35c0-28.36-22.99-51.35-51.34-51.35h0ZM178.97,207.89c-18.41,0-33.33-14.92-33.33-33.33,0-18.41,14.92-33.33,33.33-33.33,18.41,0,33.33,14.92,33.33,33.33,0,18.4-14.91,33.33-33.32,33.33h-.02ZM244.36,121.18c0,6.63-5.36,12-11.99,12.01-6.63,0-12-5.36-12.01-11.99,0-6.63,5.36-12,11.99-12.01,0,0,0,0,0,0,6.62,0,11.99,5.37,12,11.99Z"/>
</svg>