<svg xmlns="http://www.w3.org/2000/svg" id="Layer_1" width="50" height="50" data-name="Layer 1" viewBox="0 0 331.01 327.01">
  <defs>
    <style>
      .cls-1 {
        stroke: #1a1716;
      }

      .cls-1, .cls-2, .cls-3 {
        stroke-miterlimit: 10;
        stroke-width: 5px;
      }

      .cls-1, .cls-4, .cls-3 {
        fill: #191615;
      }

      .cls-2 {
        fill: #fff;
      }

      .cls-2, .cls-3 {
        stroke: #191615;
      }

      .cls-4 {
        stroke-width: 0px;
      }
    </style>
  </defs>
  <path class="cls-3" d="M270.64,302.5H34.36c-11,0-20.69-5.57-26.42-14.05-3.43-5.08-5.44-11.21-5.44-17.81V34.36C2.5,16.76,16.76,2.5,34.36,2.5h236.29c17.59,0,31.86,14.26,31.86,31.86v236.29c0,17.59-14.26,31.86-31.86,31.86Z"/>
  <polyline class="cls-1" points="12.45 293.76 38.68 315.98 37.42 293.76"/>
  <polyline class="cls-1" points="292.17 10.87 315.93 31 278 35"/>
  <path class="cls-2" d="M296.64,324.5H60.36c-11,0-20.69-5.57-26.42-14.05-3.43-5.08-5.44-11.21-5.44-17.81V56.36c0-17.59,14.26-31.86,31.86-31.86h236.29c17.59,0,31.86,14.26,31.86,31.86v236.29c0,17.59-14.26,31.86-31.86,31.86Z"/>
  <g>
    <path class="cls-4" d="M128.91,101.76c0,10.55-8.04,19.09-20.6,19.09s-20.09-8.54-19.84-19.09c-.25-11.05,7.79-19.34,20.09-19.34s20.09,8.29,20.35,19.34ZM89.48,258.74v-122.82h38.18v122.82h-38.18Z"/>
    <path class="cls-4" d="M158.3,175.1c0-15.32-.5-28.38-1-39.18h33.15l1.76,16.83h.75c5.02-7.79,17.58-19.59,37.93-19.59,25.12,0,43.96,16.58,43.96,52.75v72.84h-38.18v-68.07c0-15.82-5.53-26.62-19.34-26.62-10.55,0-16.83,7.28-19.34,14.32-1,2.26-1.51,6.03-1.51,9.54v70.83h-38.18v-83.64Z"/>
  </g>
</svg>