<svg viewBox="0 0 167.27 162.29" xmlns="http://www.w3.org/2000/svg" id="Layer_1">
  <defs>
    <style>
      .cls-1 {
        fill: #fff;
        stroke-width: 0px;
      }
    </style>
  </defs>
  <g>
    <path d="M131.03,25.81l1.21-2.95-2.88-2.27-2.58,1.87-1.48-1.16,9.77-6.96,1.98,1.56-4.48,11.13-1.54-1.21ZM134.92,16.59l-.1-.08-4.24,3.09,2.33,1.84,2.01-4.84Z" class="cls-1"></path>
    <path d="M140.38,22.69l1.04,1.13-4.7,5.46.1.11,6.12-3.92,1.19,1.28-4.41,5.78.1.11,5.83-4.24,1,1.08-7.06,4.9-1.5-1.62,4.07-5.31-.1-.11-5.63,3.63-1.5-1.62,5.45-6.65Z" class="cls-1"></path>
    <path d="M146.05,43.41c-.57-.85-.37-1.6.29-2.16l-.05-.07c-1.03.29-2.04-.11-2.78-1.22-.96-1.44-.78-2.91.55-3.8,1.37-.92,2.78-.41,4.18,1.69l.91,1.36.55-.37c.95-.63,1.1-1.47.42-2.48-.6-.91-1.35-1.18-2.19-1.17l.13-1.38c1.03-.12,2.32.41,3.32,1.91,1.19,1.78,1.03,3.48-.58,4.56l-3.55,2.37.6.89-1.18.79-.61-.92ZM147.19,40.53l1.03-.69-.89-1.33c-.73-1.1-1.42-1.39-2.05-.97l-.27.18c-.63.42-.63,1.14-.1,1.93.64.96,1.59,1.34,2.29.87Z" class="cls-1"></path>
    <path d="M149.6,46.7l.95,2.05,5.09-2.36-.95-2.05,1.32-.61,1.7,3.68-2.05.95.04.09c1.22-.2,2.5.02,3.23,1.6l.43.93-1.56.72-.71-1.53c-.62-1.33-1.83-1.63-2.9-1.13l-2.89,1.34,1.3,2.8-1.32.61-3-6.48,1.32-.61Z" class="cls-1"></path>
    <path d="M155.69,62.69l-.03-.09c-1.12-.2-1.95-.82-2.29-2.02-.55-1.92.58-3.58,3.39-4.38,2.81-.8,4.64.02,5.18,1.94.34,1.21-.04,2.17-.88,2.93l.03.1,4.95-1.41.49,1.73-11.74,3.34-.49-1.73,1.4-.4ZM157.02,62.31l2.73-.78c1-.28,1.26-1.29.98-2.29-.37-1.3-1.46-1.8-2.79-1.42l-1.33.38c-1.33.38-1.99,1.37-1.62,2.67.29,1,1.04,1.71,2.04,1.43Z" class="cls-1"></path>
    <path d="M159.83,69.47l1.79-.22.6,4.95-1.79.22-.6-4.95Z" class="cls-1"></path>
    <path d="M165.19,79.48l-.06,1.53-7.19.56v.15s7.1,1.54,7.1,1.54l-.06,1.75-7.2.99v.15s7.12,1.11,7.12,1.11l-.05,1.47-8.47-1.5.08-2.21,6.64-.89v-.15s-6.55-1.4-6.55-1.4l.08-2.21,8.55-.87Z" class="cls-1"></path>
    <path d="M157.26,92.09l-.56,2.85,5.5,1.08.56-2.85,1.42.28-.91,4.61-6.93-1.36-.53,2.67-1.42-.28,1.43-7.28,1.43.28ZM166.17,96.47l.34.07c.53.1.89.51.72,1.38-.17.89-.66,1.13-1.19,1.03l-.34-.07c-.54-.11-.89-.51-.72-1.39.17-.89.66-1.13,1.19-1.03Z" class="cls-1"></path>
    <path d="M153.35,102.62l8.01,2.88-.61,1.69-1.37-.49-.03.08c.71.64,1.19,1.55.72,2.87-.58,1.61-2.07,2.3-4.01,1.61l-5.15-1.85.61-1.69,4.91,1.76c1.27.46,2.12.11,2.51-.97.31-.87.17-1.9-.76-2.23l-5.43-1.95.61-1.69Z" class="cls-1"></path>
    <path d="M149.16,113.18l7.45,4.12-.87,1.57-1.27-.7-.04.07c.6.75.93,1.72.25,2.95-.83,1.5-2.42,1.94-4.22.95l-4.79-2.65.87-1.57,4.56,2.53c1.18.66,2.07.45,2.63-.56.45-.81.48-1.85-.39-2.33l-5.05-2.8.87-1.57Z" class="cls-1"></path>
    <path d="M144.33,124.08l-1.79,2.29,4.42,3.45,1.79-2.29,1.14.89-2.89,3.71-5.57-4.35-1.68,2.15-1.14-.89,4.57-5.85,1.14.89ZM150.31,132.01l.27.21c.43.34.56.86.02,1.56-.56.71-1.1.71-1.53.38l-.27-.21c-.43-.34-.56-.86-.01-1.56.56-.72,1.1-.71,1.53-.38Z" class="cls-1"></path>
    <path d="M136.12,131.69l5.8,6.23-1.32,1.22-.99-1.06-.06.06c.34.9.35,1.93-.67,2.88-1.25,1.17-2.9,1.1-4.3-.41l-3.73-4.01,1.32-1.23,3.55,3.81c.92.99,1.83,1.07,2.67.28.67-.63,1.03-1.61.35-2.33l-3.93-4.22,1.32-1.23Z" class="cls-1"></path>
    <path d="M122.68,138.28c2.44-1.64,3.72-1.57,4.43-.52.52.77.33,1.47-.31,2.2l.09.14c.6-.14,1.11-.03,1.47.5.47.7.15,1.37-.47,2.05l.05.07c1.12-.17,2.13.24,2.81,1.25,1.01,1.51.53,3.24-1.21,4.41-.49.33-1,.55-1.48.66l.16.23c.37.55.33,1.17-.3,1.59l-1.29.87-.79-1.18,1.64-1.11-.22-.33c-.9,0-1.69-.43-2.26-1.28-1.01-1.51-.52-3.23,1.21-4.4.32-.21.62-.38.93-.51.27-.3.54-.8.28-1.18-.29-.44-.81-.17-1.43.24l-1.59,1.07c-1.9,1.28-3.22,1.01-4-.15-.98-1.45-.22-2.96,2.27-4.64ZM123.59,141.76l2.45-1.65c.23-.4.24-.78-.01-1.15-.36-.53-1.07-.69-2.11,0l-1.11.75c-1.12.76-1.51,1.51-1.07,2.16.32.48.85.56,1.85-.12ZM126.35,146.68l.25.37c.51.75,1.3.96,2.26.31.96-.65,1.07-1.46.56-2.21l-.25-.37c-.51-.75-1.3-.96-2.26-.31-.96.65-1.07,1.46-.56,2.21Z" class="cls-1"></path>
    <path d="M103.17,147.41c2.82-.82,4.02-.36,4.37.86.26.89-.13,1.5-.97,2l.04.16c.61.04,1.07.31,1.25.93.23.81-.28,1.35-1.08,1.81l.02.08c1.12.17,1.95.88,2.29,2.05.5,1.74-.49,3.25-2.5,3.83-.57.16-1.12.22-1.62.17l.08.27c.18.63-.04,1.21-.77,1.43l-1.49.43-.4-1.36,1.9-.55-.11-.38c-.86-.28-1.47-.93-1.76-1.91-.51-1.74.49-3.23,2.5-3.82.36-.11.71-.17,1.04-.2.35-.21.76-.6.63-1.04-.15-.51-.72-.41-1.43-.2l-1.84.53c-2.2.64-3.37-.02-3.76-1.37-.49-1.68.69-2.88,3.58-3.72ZM102.98,151l2.84-.82c.34-.31.46-.67.34-1.09-.18-.62-.8-.99-2.01-.64l-1.28.37c-1.3.38-1.9.98-1.68,1.72.16.55.64.79,1.8.46ZM104.09,156.52l.12.43c.25.87.95,1.31,2.05.99s1.46-1.06,1.21-1.93l-.12-.43c-.25-.87-.95-1.31-2.05-.98-1.11.32-1.46,1.06-1.21,1.93Z" class="cls-1"></path>
    <path d="M96.86,154.04l-2.24.28.7,5.57,2.24-.28.18,1.44-4.03.51-.28-2.24h-.1c-.18,1.23-.78,2.39-2.5,2.61l-1.02.13-.21-1.7,1.67-.21c1.46-.18,2.11-1.25,1.96-2.42l-.4-3.16-3.06.38-.18-1.44,7.09-.89.18,1.44Z" class="cls-1"></path>
    <path d="M85.58,157.97c-.09,2.72-1.68,4.4-4.19,4.32-2.51-.08-3.98-1.86-3.89-4.58.09-2.72,1.68-4.4,4.19-4.32,2.5.08,3.98,1.87,3.89,4.58ZM79.4,157.12l-.04,1.29c-.05,1.58.78,2.42,2.08,2.46,1.3.04,2.19-.74,2.24-2.32l.04-1.29c.05-1.58-.78-2.42-2.08-2.46-1.3-.04-2.19.74-2.24,2.32Z" class="cls-1"></path>
    <path d="M73.32,161.55l-1.51-.29.55-7.19-.15-.03-2.61,6.79-1.72-.33.13-7.27-.15-.03-2.19,6.87-1.44-.28,2.78-8.14,2.17.42-.13,6.7.15.03,2.39-6.26,2.17.42-.45,8.59Z" class="cls-1"></path>
    <path d="M58.98,149.13c1.4.5,1.75,1.58,1.32,2.77l-1.66,4.61,2.47.89-.49,1.37-1.75-.63c-.59-.21-.9-.09-1.12.53l-.72,2-1.58-.57,1.02-2.83-3.42-1.23.49-1.37,3.42,1.23,1.9-5.28-3.41-1.23.49-1.37,3.06,1.1Z" class="cls-1"></path>
    <path d="M46.35,157.06l-1.58-.87,2.48-4.51-.07-.04c-.75.61-1.72.94-2.95.26-1.5-.83-1.95-2.41-.96-4.22l2.63-4.8,1.58.87-2.51,4.57c-.65,1.19-.44,2.07.57,2.63.81.44,1.85.47,2.33-.4l2.78-5.06,1.58.87-5.88,10.71Z" class="cls-1"></path>
    <path d="M34.13,133.88l-6.2,5.83-1.05-1.12.8-.76-.06-.06c-.71.3-1.43.38-2.07-.3-.61-.65-.56-1.37-.03-2.05l-.05-.05c-.77.31-1.56.36-2.26-.39-.89-.95-.51-1.94.77-3.15l4.36-4.1,1.05,1.12-4.2,3.94c-.85.8-.96,1.26-.52,1.73.4.42.96.47,1.53-.06l4.5-4.22,1.05,1.12-4.2,3.94c-.85.8-.97,1.25-.53,1.72.41.43.98.49,1.54-.04l4.5-4.22,1.05,1.12Z" class="cls-1"></path>
    <path d="M22.35,119.31c.58.85.38,1.59-.27,2.16l.05.07c1.03-.3,2.04.09,2.79,1.2.97,1.43.8,2.91-.52,3.81-1.36.93-2.78.43-4.2-1.65l-.92-1.35-.55.37c-.94.64-1.09,1.48-.4,2.49.61.9,1.35,1.17,2.2,1.16l-.12,1.38c-1.03.12-2.32-.39-3.33-1.88-1.21-1.77-1.06-3.47.55-4.56l3.53-2.4-.6-.89,1.17-.8.62.91ZM21.24,122.2l-1.02.7.9,1.32c.74,1.09,1.44,1.38,2.06.95l.27-.19c.63-.43.62-1.14.08-1.93-.65-.95-1.6-1.33-2.3-.85Z" class="cls-1"></path>
    <path d="M18.77,116.05l-.97-2.04-5.07,2.4.97,2.04-1.31.62-1.73-3.67,2.04-.97-.04-.09c-1.21.21-2.5,0-3.24-1.57l-.44-.92,1.55-.73.72,1.52c.63,1.33,1.84,1.61,2.91,1.11l2.88-1.36-1.32-2.79,1.31-.62,3.05,6.46-1.31.62Z" class="cls-1"></path>
    <path d="M3.73,108.27l-.51-1.73,7.08-2.08-.02-.08-1.69-.9-2.89-1.65-.6-2.04,4.19,2.37,3.88-5.13.61,2.07-3.14,4.02,1.4.83,2.91-.85.51,1.73-11.72,3.44Z" class="cls-1"></path>
    <path d="M8.43,94.85c-2.72.35-4.64-1-4.95-3.4-.31-2.37,1.2-4.1,3.69-4.42l.67-.09.79,6.06.28-.04c1.33-.17,2.14-1.18,1.96-2.63-.14-1.08-.75-1.8-1.6-2.17l.84-1.24c1.06.45,1.98,1.52,2.21,3.26.34,2.59-1.18,4.33-3.87,4.68ZM7.36,93.16h.12s-.55-4.25-.55-4.25l-.16.02c-1.33.17-2.09,1.1-1.93,2.35.17,1.28,1.22,2.06,2.52,1.89Z" class="cls-1"></path>
    <path d="M11.57,78.53c-.04,1.48-.95,2.15-2.22,2.12l-4.9-.14-.08,2.62-1.45-.04.05-1.86c.02-.63-.19-.88-.85-.9l-2.13-.06.05-1.68,3,.08.1-3.63,1.45.04-.1,3.63,5.61.16.1-3.63,1.45.04-.09,3.25Z" class="cls-1"></path>
    <path d="M1.79,66.42l-.34-.06c-.53-.1-.9-.5-.73-1.38.17-.89.65-1.14,1.19-1.04l.34.06c.54.1.9.5.73,1.38-.17.89-.65,1.14-1.19,1.04ZM10.74,70.72l.54-2.85-5.52-1.04-.54,2.85-1.43-.27.87-4.62,6.94,1.31.5-2.68,1.43.27-1.37,7.3-1.43-.27Z" class="cls-1"></path>
    <path d="M14.55,60.15l-8.02-2.86.6-1.69,1.37.49.03-.08c-.72-.64-1.2-1.55-.73-2.87.58-1.62,2.07-2.31,4.01-1.62l5.16,1.84-.6,1.69-4.91-1.75c-1.27-.45-2.12-.11-2.5.98-.31.87-.17,1.9.76,2.23l5.44,1.94-.6,1.69Z" class="cls-1"></path>
    <path d="M23.43,48.12c-1.4,2.58-2.57,3.11-3.69,2.5-.81-.44-.97-1.15-.74-2.09l-.14-.08c-.46.41-.97.54-1.54.24-.74-.4-.77-1.15-.53-2.03l-.07-.04c-.91.67-2,.77-3.07.19-1.59-.87-1.97-2.63-.97-4.47.28-.52.63-.95,1.01-1.27l-.25-.13c-.58-.32-.83-.88-.47-1.55l.74-1.36,1.25.68-.94,1.74.35.19c.8-.41,1.7-.39,2.59.09,1.59.87,1.96,2.62.96,4.46-.18.33-.38.62-.59.88-.1.39-.1.96.3,1.18.46.25.8-.22,1.15-.88l.91-1.68c1.09-2.01,2.38-2.38,3.62-1.72,1.54.83,1.56,2.52.13,5.16ZM16.3,42.38l-.39-.21c-.8-.43-1.59-.25-2.14.77-.55,1.01-.27,1.78.52,2.22l.39.21c.8.43,1.59.25,2.14-.77.55-1.02.27-1.79-.52-2.22ZM21.01,45.46l-1.41,2.59c-.02.46.15.79.54,1.01.57.31,1.27.12,1.86-.98l.64-1.17c.65-1.19.64-2.04-.04-2.41-.51-.28-1.02-.1-1.59.96Z" class="cls-1"></path>
    <path d="M36.43,26.33c-.74.7-1.51.64-2.17.08l-.06.06c.46.97.24,2.02-.73,2.94-1.26,1.19-2.74,1.26-3.84.09-1.13-1.2-.87-2.67.96-4.41l1.19-1.12-.45-.48c-.78-.83-1.63-.84-2.52,0-.79.75-.94,1.53-.79,2.36l-1.38.1c-.29-1,.02-2.36,1.32-3.59,1.56-1.47,3.25-1.6,4.59-.19l2.94,3.1.78-.74.98,1.03-.8.76ZM33.4,25.7l-.85-.9-1.16,1.1c-.96.91-1.13,1.64-.61,2.19l.23.24c.52.55,1.23.43,1.92-.23.84-.79,1.05-1.79.47-2.4Z" class="cls-1"></path>
    <path d="M44.94,24.25c-2.42,1.66-3.7,1.6-4.42.55-.52-.76-.34-1.46.29-2.2l-.09-.14c-.6.15-1.11.04-1.48-.49-.48-.69-.16-1.37.45-2.05l-.05-.07c-1.11.18-2.13-.22-2.82-1.22-1.03-1.5-.56-3.24,1.17-4.42.49-.34.99-.56,1.48-.67l-.16-.23c-.37-.54-.34-1.17.28-1.6l1.28-.88.8,1.17-1.63,1.12.22.33c.9,0,1.69.42,2.27,1.26,1.03,1.5.55,3.22-1.17,4.41-.31.21-.62.38-.93.52-.27.31-.53.8-.27,1.18.3.43.81.16,1.42-.26l1.58-1.08c1.89-1.3,3.21-1.04,4,.11.99,1.44.25,2.95-2.23,4.65ZM41.2,15.89l-.25-.37c-.51-.75-1.31-.94-2.26-.29-.95.65-1.05,1.47-.54,2.21l.25.37c.51.75,1.31.94,2.26.29.95-.65,1.06-1.47.54-2.21ZM44,20.78l-2.44,1.67c-.23.4-.23.78.02,1.14.36.53,1.07.68,2.11-.03l1.1-.76c1.11-.77,1.49-1.53,1.05-2.17-.33-.48-.86-.55-1.85.13Z" class="cls-1"></path>
    <path d="M47.39,13.57c-1.18-2.47-.5-4.72,1.69-5.76,2.16-1.03,4.27-.14,5.35,2.13l.29.61-5.51,2.63.12.25c.58,1.21,1.79,1.67,3.11,1.04.98-.47,1.48-1.27,1.57-2.19l1.44.41c-.1,1.14-.83,2.35-2.41,3.11-2.35,1.12-4.48.22-5.65-2.22ZM48.67,12.03l.05.1,3.86-1.84-.07-.15c-.58-1.21-1.7-1.64-2.83-1.1-1.16.55-1.58,1.79-1.01,2.98Z" class="cls-1"></path>
    <path d="M59.97,12.63l-2.43-8.16,1.72-.51.41,1.39.08-.02c.09-.96.54-1.88,1.89-2.28,1.64-.49,3.09.3,3.68,2.28l1.57,5.25-1.72.51-1.49-5c-.39-1.3-1.17-1.77-2.27-1.44-.89.26-1.64.99-1.35,1.94l1.65,5.54-1.72.51Z" class="cls-1"></path>
    <path d="M70.22,5.51c-.36-2.7.91-4.62,3.4-4.95,1.73-.23,2.88.45,3.56,1.55l-1.29.94c-.4-.75-1.09-1.15-2.07-1.02-1.34.18-2.01,1.19-1.83,2.53l.19,1.41c.18,1.33,1.07,2.14,2.46,1.95,1.05-.14,1.62-.75,1.9-1.62l1.42.63c-.38,1.25-1.37,2.23-3.13,2.47-2.52.34-4.24-1.18-4.6-3.88Z" class="cls-1"></path>
    <path d="M88.5.17l1.81.04-4.37,10.06c-.47,1.08-1.1,1.62-2.45,1.59l-1.43-.04.04-1.45,2.01.05.82-1.94-3.23-8.48,1.88.05,1.27,3.59.98,2.94h.1s1.13-2.89,1.13-2.89l1.44-3.53Z" class="cls-1"></path>
  </g>
  <circle r="3" cy="7.93" cx="110.21" class="cls-1"></circle>
  <path d="M93.64,73.82l-24.99,24.99c6.85,6.85,18.14,6.85,24.99,0s6.85-18.14,0-24.99Z" class="cls-1"></path>
  <path d="M99.32,63.52c-8.33,8.16-16.66,16.33-24.99,24.49-6.66-6.85-6.65-17.81-.22-24.49,6.69-6.95,18.21-7.07,25.21,0Z" class="cls-1"></path>
</svg>