<svg xmlns="http://www.w3.org/2000/svg" xmlns:xlink="http://www.w3.org/1999/xlink" width="39" height="39" viewBox="0 0 39 39">
  <defs>
    <clipPath id="clip-path">
      <rect id="Rectangle_149" data-name="Rectangle 149" width="39" height="39" transform="translate(1241 380)" fill="#fff" stroke="#707070" stroke-width="1"/>
    </clipPath>
  </defs>
  <g id="Mask_Group_6" data-name="Mask Group 6" transform="translate(-1241 -380)" clip-path="url(#clip-path)">
    <g id="icon-users" transform="translate(-517.25 -308.188)">
      <path id="Path_35" d="M1785.875,723.125v-3.25a6.519,6.519,0,0,0-6.5-6.5h-13a6.519,6.519,0,0,0-6.5,6.5v3.25" fill="none" stroke="#191615" stroke-width="3.25"/>
      <circle id="Ellipse_4" cx="6.5" cy="6.5" r="6.5" transform="translate(1766.375 693.875)" fill="none" stroke="#191615" stroke-width="3.25"/>
      <path id="Path_36" d="M1795.625,723.125v-3.25a6.584,6.584,0,0,0-4.875-6.337" fill="none" stroke="#191615" stroke-width="3.25"/>
      <path id="Path_37" d="M1784.25,694.038a6.6,6.6,0,0,1,4.713,7.962,6.873,6.873,0,0,1-4.713,4.712" fill="none" stroke="#191615" stroke-width="3.25"/>
    </g>
  </g>
</svg>
